<svg xmlns="http://www.w3.org/2000/svg" version="1.1" xmlns:xlink="http://www.w3.org/1999/xlink" xmlns:svgjs="http://svgjs.dev/svgjs" viewBox="0 0 800 800"><defs><linearGradient x1="50%" y1="0%" x2="50%" y2="100%" id="ffflurry-grad" gradientTransform="rotate(270)"><stop stop-color="rgb(12, 12, 12)" stop-opacity="1" offset="0%"></stop><stop stop-color="hsl(0, 0%, 29%)" stop-opacity="1" offset="45%"></stop><stop stop-color="hsl(0, 0%, 79%)" stop-opacity="1" offset="100%"></stop></linearGradient></defs><rect width="100%" height="100%" fill="#0c0c0c"></rect><g fill="url(#ffflurry-grad)"><rect width="629" height="1" x="71.5" y="761.5" rx="0.5" transform="rotate(120, 386, 762)" opacity="0.36"></rect><rect width="35" height="1" x="692.5" y="38.5" rx="0.5" transform="rotate(120, 710, 39)" opacity="0.78"></rect><rect width="157" height="1" x="551.5" y="766.5" rx="0.5" transform="rotate(120, 630, 767)" opacity="0.82"></rect><rect width="79" height="1" x="499.5" y="66.5" rx="0.5" transform="rotate(120, 539, 67)" opacity="0.99"></rect><rect width="60" height="1" x="44" y="29.5" rx="0.5" transform="rotate(120, 74, 30)" opacity="0.29"></rect><rect width="240" height="1" x="395" y="477.5" rx="0.5" transform="rotate(120, 515, 478)" opacity="0.88"></rect><rect width="529" height="1" x="-217.5" y="575.5" rx="0.5" transform="rotate(120, 47, 576)" opacity="0.94"></rect><rect width="201" height="1" x="168.5" y="218.5" rx="0.5" transform="rotate(120, 269, 219)" opacity="0.62"></rect><rect width="619" height="1" x="-291.5" y="544.5" rx="0.5" transform="rotate(120, 18, 545)" opacity="0.44"></rect><rect width="252" height="1" x="501" y="484.5" rx="0.5" transform="rotate(120, 627, 485)" opacity="0.57"></rect><rect width="1066" height="1" x="-391" y="345.5" rx="0.5" transform="rotate(120, 142, 346)" opacity="0.83"></rect><rect width="151" height="1" x="524.5" y="627.5" rx="0.5" transform="rotate(120, 600, 628)" opacity="0.66"></rect><rect width="904" height="1" x="-294" y="159.5" rx="0.5" transform="rotate(120, 158, 160)" opacity="0.32"></rect><rect width="63" height="1" x="162.5" y="754.5" rx="0.5" transform="rotate(120, 194, 755)" opacity="0.42"></rect><rect width="779" height="1" x="-296.5" y="398.5" rx="0.5" transform="rotate(120, 93, 399)" opacity="0.71"></rect><rect width="890" height="1" x="-252" y="609.5" rx="0.5" transform="rotate(120, 193, 610)" opacity="0.26"></rect><rect width="270" height="1" x="596" y="477.5" rx="0.5" transform="rotate(120, 731, 478)" opacity="0.87"></rect><rect width="664" height="1" x="-134" y="220.5" rx="0.5" transform="rotate(120, 198, 221)" opacity="0.58"></rect><rect width="411" height="1" x="-101.5" y="173.5" rx="0.5" transform="rotate(120, 104, 174)" opacity="0.70"></rect><rect width="72" height="1" x="33" y="128.5" rx="0.5" transform="rotate(120, 69, 129)" opacity="0.10"></rect><rect width="596" height="1" x="-265" y="747.5" rx="0.5" transform="rotate(120, 33, 748)" opacity="0.81"></rect><rect width="477" height="1" x="-131.5" y="89.5" rx="0.5" transform="rotate(120, 107, 90)" opacity="0.40"></rect><rect width="682" height="1" x="-311" y="90.5" rx="0.5" transform="rotate(120, 30, 91)" opacity="0.64"></rect><rect width="586" height="1" x="69" y="169.5" rx="0.5" transform="rotate(120, 362, 170)" opacity="0.48"></rect><rect width="395" height="1" x="-68.5" y="14.5" rx="0.5" transform="rotate(120, 129, 15)" opacity="0.70"></rect><rect width="1151" height="1" x="130.5" y="760.5" rx="0.5" transform="rotate(120, 706, 761)" opacity="0.19"></rect><rect width="737" height="1" x="37.5" y="138.5" rx="0.5" transform="rotate(120, 406, 139)" opacity="0.29"></rect><rect width="169" height="1" x="340.5" y="593.5" rx="0.5" transform="rotate(120, 425, 594)" opacity="0.43"></rect><rect width="259" height="1" x="-93.5" y="216.5" rx="0.5" transform="rotate(120, 36, 217)" opacity="0.11"></rect><rect width="430" height="1" x="193" y="258.5" rx="0.5" transform="rotate(120, 408, 259)" opacity="0.55"></rect><rect width="726" height="1" x="-280" y="452.5" rx="0.5" transform="rotate(120, 83, 453)" opacity="0.23"></rect><rect width="821" height="1" x="201.5" y="117.5" rx="0.5" transform="rotate(120, 612, 118)" opacity="0.24"></rect><rect width="25" height="1" x="558.5" y="48.5" rx="0.5" transform="rotate(120, 571, 49)" opacity="0.36"></rect><rect width="905" height="1" x="-178.5" y="703.5" rx="0.5" transform="rotate(120, 274, 704)" opacity="0.22"></rect><rect width="89" height="1" x="499.5" y="576.5" rx="0.5" transform="rotate(120, 544, 577)" opacity="0.12"></rect><rect width="197" height="1" x="272.5" y="89.5" rx="0.5" transform="rotate(120, 371, 90)" opacity="0.83"></rect><rect width="33" height="1" x="212.5" y="496.5" rx="0.5" transform="rotate(120, 229, 497)" opacity="0.99"></rect><rect width="792" height="1" x="346" y="569.5" rx="0.5" transform="rotate(120, 742, 570)" opacity="0.13"></rect><rect width="573" height="1" x="-62.5" y="98.5" rx="0.5" transform="rotate(120, 224, 99)" opacity="0.08"></rect><rect width="163" height="1" x="520.5" y="8.5" rx="0.5" transform="rotate(120, 602, 9)" opacity="0.07"></rect><rect width="844" height="1" x="8" y="687.5" rx="0.5" transform="rotate(120, 430, 688)" opacity="0.60"></rect><rect width="517" height="1" x="409.5" y="627.5" rx="0.5" transform="rotate(120, 668, 628)" opacity="0.74"></rect><rect width="482" height="1" x="438" y="371.5" rx="0.5" transform="rotate(120, 679, 372)" opacity="0.71"></rect><rect width="500" height="1" x="-61" y="277.5" rx="0.5" transform="rotate(120, 189, 278)" opacity="0.95"></rect><rect width="720" height="1" x="253" y="53.5" rx="0.5" transform="rotate(120, 613, 54)" opacity="0.88"></rect><rect width="817" height="1" x="160.5" y="708.5" rx="0.5" transform="rotate(120, 569, 709)" opacity="0.13"></rect><rect width="155" height="1" x="579.5" y="7.5" rx="0.5" transform="rotate(120, 657, 8)" opacity="0.58"></rect><rect width="451" height="1" x="152.5" y="330.5" rx="0.5" transform="rotate(120, 378, 331)" opacity="0.62"></rect><rect width="381" height="1" x="370.5" y="172.5" rx="0.5" transform="rotate(120, 561, 173)" opacity="0.10"></rect><rect width="81" height="1" x="275.5" y="518.5" rx="0.5" transform="rotate(120, 316, 519)" opacity="0.83"></rect><rect width="490" height="1" x="231" y="215.5" rx="0.5" transform="rotate(120, 476, 216)" opacity="0.45"></rect><rect width="124" height="1" x="313" y="543.5" rx="0.5" transform="rotate(120, 375, 544)" opacity="0.19"></rect><rect width="848" height="1" x="-79" y="24.5" rx="0.5" transform="rotate(120, 345, 25)" opacity="0.14"></rect><rect width="260" height="1" x="579" y="516.5" rx="0.5" transform="rotate(120, 709, 517)" opacity="0.68"></rect><rect width="93" height="1" x="712.5" y="248.5" rx="0.5" transform="rotate(120, 759, 249)" opacity="0.22"></rect><rect width="405" height="1" x="246.5" y="94.5" rx="0.5" transform="rotate(120, 449, 95)" opacity="0.49"></rect><rect width="297" height="1" x="519.5" y="271.5" rx="0.5" transform="rotate(120, 668, 272)" opacity="0.09"></rect><rect width="98" height="1" x="726" y="625.5" rx="0.5" transform="rotate(120, 775, 626)" opacity="0.14"></rect><rect width="557" height="1" x="-26.5" y="578.5" rx="0.5" transform="rotate(120, 252, 579)" opacity="0.45"></rect><rect width="187" height="1" x="256.5" y="712.5" rx="0.5" transform="rotate(120, 350, 713)" opacity="0.82"></rect><rect width="779" height="1" x="313.5" y="691.5" rx="0.5" transform="rotate(120, 703, 692)" opacity="0.29"></rect><rect width="254" height="1" x="9" y="55.5" rx="0.5" transform="rotate(120, 136, 56)" opacity="0.85"></rect><rect width="796" height="1" x="371" y="27.5" rx="0.5" transform="rotate(120, 769, 28)" opacity="0.25"></rect><rect width="984" height="1" x="-275" y="345.5" rx="0.5" transform="rotate(120, 217, 346)" opacity="0.61"></rect><rect width="415" height="1" x="112.5" y="569.5" rx="0.5" transform="rotate(120, 320, 570)" opacity="0.60"></rect><rect width="742" height="1" x="142" y="774.5" rx="0.5" transform="rotate(120, 513, 775)" opacity="0.69"></rect><rect width="124" height="1" x="425" y="32.5" rx="0.5" transform="rotate(120, 487, 33)" opacity="1.00"></rect><rect width="845" height="1" x="347.5" y="174.5" rx="0.5" transform="rotate(120, 770, 175)" opacity="0.52"></rect><rect width="226" height="1" x="-67" y="659.5" rx="0.5" transform="rotate(120, 46, 660)" opacity="0.49"></rect><rect width="463" height="1" x="307.5" y="15.5" rx="0.5" transform="rotate(120, 539, 16)" opacity="0.39"></rect><rect width="746" height="1" x="141" y="647.5" rx="0.5" transform="rotate(120, 514, 648)" opacity="0.54"></rect><rect width="236" height="1" x="136" y="640.5" rx="0.5" transform="rotate(120, 254, 641)" opacity="0.23"></rect><rect width="156" height="1" x="115" y="681.5" rx="0.5" transform="rotate(120, 193, 682)" opacity="1.00"></rect><rect width="523" height="1" x="508.5" y="708.5" rx="0.5" transform="rotate(120, 770, 709)" opacity="0.76"></rect><rect width="35" height="1" x="688.5" y="315.5" rx="0.5" transform="rotate(120, 706, 316)" opacity="0.65"></rect><rect width="612" height="1" x="360" y="559.5" rx="0.5" transform="rotate(120, 666, 560)" opacity="0.18"></rect><rect width="875" height="1" x="-214.5" y="160.5" rx="0.5" transform="rotate(120, 223, 161)" opacity="0.73"></rect><rect width="377" height="1" x="-176.5" y="651.5" rx="0.5" transform="rotate(120, 12, 652)" opacity="0.18"></rect><rect width="619" height="1" x="-254.5" y="504.5" rx="0.5" transform="rotate(120, 55, 505)" opacity="0.23"></rect><rect width="40" height="1" x="419" y="774.5" rx="0.5" transform="rotate(120, 439, 775)" opacity="0.28"></rect><rect width="484" height="1" x="524" y="88.5" rx="0.5" transform="rotate(120, 766, 89)" opacity="0.77"></rect><rect width="630" height="1" x="106" y="32.5" rx="0.5" transform="rotate(120, 421, 33)" opacity="0.35"></rect><rect width="287" height="1" x="47.5" y="20.5" rx="0.5" transform="rotate(120, 191, 21)" opacity="0.14"></rect><rect width="652" height="1" x="-108" y="550.5" rx="0.5" transform="rotate(120, 218, 551)" opacity="0.75"></rect><rect width="749" height="1" x="-84.5" y="316.5" rx="0.5" transform="rotate(120, 290, 317)" opacity="0.78"></rect><rect width="217" height="1" x="75.5" y="73.5" rx="0.5" transform="rotate(120, 184, 74)" opacity="0.59"></rect><rect width="602" height="1" x="-9" y="606.5" rx="0.5" transform="rotate(120, 292, 607)" opacity="0.91"></rect><rect width="435" height="1" x="302.5" y="111.5" rx="0.5" transform="rotate(120, 520, 112)" opacity="0.35"></rect><rect width="671" height="1" x="-307.5" y="162.5" rx="0.5" transform="rotate(120, 28, 163)" opacity="0.51"></rect><rect width="215" height="1" x="205.5" y="75.5" rx="0.5" transform="rotate(120, 313, 76)" opacity="0.44"></rect><rect width="241" height="1" x="147.5" y="525.5" rx="0.5" transform="rotate(120, 268, 526)" opacity="0.88"></rect><rect width="601" height="1" x="427.5" y="642.5" rx="0.5" transform="rotate(120, 728, 643)" opacity="0.98"></rect><rect width="300" height="1" x="325" y="748.5" rx="0.5" transform="rotate(120, 475, 749)" opacity="0.89"></rect><rect width="464" height="1" x="97" y="662.5" rx="0.5" transform="rotate(120, 329, 663)" opacity="0.95"></rect><rect width="964" height="1" x="129" y="317.5" rx="0.5" transform="rotate(120, 611, 318)" opacity="0.36"></rect><rect width="353" height="1" x="461.5" y="700.5" rx="0.5" transform="rotate(120, 638, 701)" opacity="0.88"></rect><rect width="232" height="1" x="468" y="21.5" rx="0.5" transform="rotate(120, 584, 22)" opacity="0.50"></rect><rect width="574" height="1" x="391" y="190.5" rx="0.5" transform="rotate(120, 678, 191)" opacity="0.50"></rect><rect width="629" height="1" x="-283.5" y="375.5" rx="0.5" transform="rotate(120, 31, 376)" opacity="0.48"></rect><rect width="1101" height="1" x="-474.5" y="318.5" rx="0.5" transform="rotate(120, 76, 319)" opacity="0.32"></rect><rect width="784" height="1" x="115" y="707.5" rx="0.5" transform="rotate(120, 507, 708)" opacity="0.88"></rect><rect width="655" height="1" x="201.5" y="267.5" rx="0.5" transform="rotate(120, 529, 268)" opacity="0.33"></rect><rect width="571" height="1" x="-155.5" y="483.5" rx="0.5" transform="rotate(120, 130, 484)" opacity="0.34"></rect><rect width="461" height="1" x="249.5" y="568.5" rx="0.5" transform="rotate(120, 480, 569)" opacity="0.09"></rect><rect width="542" height="1" x="-91" y="508.5" rx="0.5" transform="rotate(120, 180, 509)" opacity="0.52"></rect><rect width="52" height="1" x="290" y="164.5" rx="0.5" transform="rotate(120, 316, 165)" opacity="0.86"></rect><rect width="54" height="1" x="291" y="770.5" rx="0.5" transform="rotate(120, 318, 771)" opacity="0.95"></rect><rect width="795" height="1" x="-293.5" y="249.5" rx="0.5" transform="rotate(120, 104, 250)" opacity="0.60"></rect><rect width="470" height="1" x="44" y="121.5" rx="0.5" transform="rotate(120, 279, 122)" opacity="0.16"></rect><rect width="218" height="1" x="226" y="245.5" rx="0.5" transform="rotate(120, 335, 246)" opacity="0.48"></rect><rect width="662" height="1" x="72" y="485.5" rx="0.5" transform="rotate(120, 403, 486)" opacity="0.27"></rect><rect width="396" height="1" x="449" y="30.5" rx="0.5" transform="rotate(120, 647, 31)" opacity="0.57"></rect><rect width="215" height="1" x="666.5" y="462.5" rx="0.5" transform="rotate(120, 774, 463)" opacity="0.71"></rect><rect width="251" height="1" x="-52.5" y="600.5" rx="0.5" transform="rotate(120, 73, 601)" opacity="0.61"></rect><rect width="646" height="1" x="401" y="131.5" rx="0.5" transform="rotate(120, 724, 132)" opacity="0.38"></rect><rect width="132" height="1" x="192" y="459.5" rx="0.5" transform="rotate(120, 258, 460)" opacity="0.46"></rect><rect width="166" height="1" x="506" y="536.5" rx="0.5" transform="rotate(120, 589, 537)" opacity="0.63"></rect><rect width="224" height="1" x="18" y="770.5" rx="0.5" transform="rotate(120, 130, 771)" opacity="0.75"></rect><rect width="291" height="1" x="-120.5" y="282.5" rx="0.5" transform="rotate(120, 25, 283)" opacity="0.71"></rect><rect width="150" height="1" x="66" y="586.5" rx="0.5" transform="rotate(120, 141, 587)" opacity="0.66"></rect><rect width="109" height="1" x="711.5" y="330.5" rx="0.5" transform="rotate(120, 766, 331)" opacity="0.81"></rect><rect width="820" height="1" x="-157" y="763.5" rx="0.5" transform="rotate(120, 253, 764)" opacity="0.49"></rect><rect width="889" height="1" x="-287.5" y="423.5" rx="0.5" transform="rotate(120, 157, 424)" opacity="0.80"></rect><rect width="344" height="1" x="469" y="414.5" rx="0.5" transform="rotate(120, 641, 415)" opacity="0.51"></rect><rect width="511" height="1" x="-157.5" y="724.5" rx="0.5" transform="rotate(120, 98, 725)" opacity="0.55"></rect><rect width="833" height="1" x="39.5" y="290.5" rx="0.5" transform="rotate(120, 456, 291)" opacity="0.11"></rect><rect width="322" height="1" x="408" y="417.5" rx="0.5" transform="rotate(120, 569, 418)" opacity="0.08"></rect><rect width="207" height="1" x="207.5" y="470.5" rx="0.5" transform="rotate(120, 311, 471)" opacity="0.58"></rect><rect width="148" height="1" x="-51" y="30.5" rx="0.5" transform="rotate(120, 23, 31)" opacity="0.48"></rect><rect width="724" height="1" x="-85" y="399.5" rx="0.5" transform="rotate(120, 277, 400)" opacity="0.44"></rect><rect width="214" height="1" x="673" y="532.5" rx="0.5" transform="rotate(120, 780, 533)" opacity="0.67"></rect><rect width="274" height="1" x="212" y="408.5" rx="0.5" transform="rotate(120, 349, 409)" opacity="0.37"></rect><rect width="691" height="1" x="-132.5" y="425.5" rx="0.5" transform="rotate(120, 213, 426)" opacity="0.91"></rect><rect width="567" height="1" x="-172.5" y="538.5" rx="0.5" transform="rotate(120, 111, 539)" opacity="0.22"></rect><rect width="97" height="1" x="518.5" y="354.5" rx="0.5" transform="rotate(120, 567, 355)" opacity="0.64"></rect><rect width="503" height="1" x="222.5" y="158.5" rx="0.5" transform="rotate(120, 474, 159)" opacity="0.23"></rect><rect width="813" height="1" x="-288.5" y="655.5" rx="0.5" transform="rotate(120, 118, 656)" opacity="0.89"></rect><rect width="348" height="1" x="-104" y="635.5" rx="0.5" transform="rotate(120, 70, 636)" opacity="0.22"></rect><rect width="933" height="1" x="-25.5" y="417.5" rx="0.5" transform="rotate(120, 441, 418)" opacity="0.31"></rect><rect width="70" height="1" x="736" y="772.5" rx="0.5" transform="rotate(120, 771, 773)" opacity="0.16"></rect><rect width="618" height="1" x="383" y="445.5" rx="0.5" transform="rotate(120, 692, 446)" opacity="0.66"></rect><rect width="52" height="1" x="462" y="353.5" rx="0.5" transform="rotate(120, 488, 354)" opacity="0.18"></rect><rect width="442" height="1" x="144" y="621.5" rx="0.5" transform="rotate(120, 365, 622)" opacity="0.69"></rect><rect width="727" height="1" x="-101.5" y="31.5" rx="0.5" transform="rotate(120, 262, 32)" opacity="0.14"></rect><rect width="174" height="1" x="478" y="773.5" rx="0.5" transform="rotate(120, 565, 774)" opacity="0.22"></rect><rect width="624" height="1" x="289" y="234.5" rx="0.5" transform="rotate(120, 601, 235)" opacity="0.98"></rect><rect width="633" height="1" x="352.5" y="86.5" rx="0.5" transform="rotate(120, 669, 87)" opacity="0.89"></rect><rect width="513" height="1" x="501.5" y="400.5" rx="0.5" transform="rotate(120, 758, 401)" opacity="0.82"></rect><rect width="853" height="1" x="-19.5" y="200.5" rx="0.5" transform="rotate(120, 407, 201)" opacity="0.95"></rect><rect width="121" height="1" x="-37.5" y="453.5" rx="0.5" transform="rotate(120, 23, 454)" opacity="0.72"></rect></g></svg>