<svg xmlns="http://www.w3.org/2000/svg" version="1.1" xmlns:xlink="http://www.w3.org/1999/xlink" xmlns:svgjs="http://svgjs.dev/svgjs" viewBox="0 0 800 800"><defs><linearGradient x1="50%" y1="0%" x2="50%" y2="100%" id="ffflurry-grad" gradientTransform="rotate(270)"><stop stop-color="rgb(9, 9, 9)" stop-opacity="1" offset="0%"></stop><stop stop-color="hsl(0, 0%, 29%)" stop-opacity="1" offset="45%"></stop><stop stop-color="hsl(0, 0%, 79%)" stop-opacity="1" offset="100%"></stop></linearGradient></defs><rect width="100%" height="100%" fill="#090909"></rect><g fill="url(#ffflurry-grad)"><rect width="357" height="1" x="82.5" y="47.5" rx="0.5" transform="rotate(90, 261, 48)" opacity="0.90"></rect><rect width="735" height="1" x="-193.5" y="660.5" rx="0.5" transform="rotate(90, 174, 661)" opacity="0.84"></rect><rect width="516" height="1" x="41" y="728.5" rx="0.5" transform="rotate(90, 299, 729)" opacity="0.92"></rect><rect width="126" height="1" x="137" y="568.5" rx="0.5" transform="rotate(90, 200, 569)" opacity="0.29"></rect><rect width="545" height="1" x="209.5" y="440.5" rx="0.5" transform="rotate(90, 482, 441)" opacity="0.08"></rect><rect width="766" height="1" x="294" y="50.5" rx="0.5" transform="rotate(90, 677, 51)" opacity="0.52"></rect><rect width="327" height="1" x="-94.5" y="384.5" rx="0.5" transform="rotate(90, 69, 385)" opacity="0.88"></rect><rect width="737" height="1" x="226.5" y="415.5" rx="0.5" transform="rotate(90, 595, 416)" opacity="0.14"></rect><rect width="357" height="1" x="396.5" y="488.5" rx="0.5" transform="rotate(90, 575, 489)" opacity="0.82"></rect><rect width="741" height="1" x="-34.5" y="236.5" rx="0.5" transform="rotate(90, 336, 237)" opacity="0.14"></rect><rect width="366" height="1" x="575" y="707.5" rx="0.5" transform="rotate(90, 758, 708)" opacity="0.91"></rect><rect width="493" height="1" x="84.5" y="686.5" rx="0.5" transform="rotate(90, 331, 687)" opacity="0.15"></rect><rect width="569" height="1" x="493.5" y="321.5" rx="0.5" transform="rotate(90, 778, 322)" opacity="0.31"></rect><rect width="173" height="1" x="-25.5" y="331.5" rx="0.5" transform="rotate(90, 61, 332)" opacity="0.98"></rect><rect width="279" height="1" x="305.5" y="702.5" rx="0.5" transform="rotate(90, 445, 703)" opacity="0.41"></rect><rect width="570" height="1" x="167" y="77.5" rx="0.5" transform="rotate(90, 452, 78)" opacity="0.96"></rect><rect width="910" height="1" x="115" y="763.5" rx="0.5" transform="rotate(90, 570, 764)" opacity="0.42"></rect><rect width="72" height="1" x="342" y="66.5" rx="0.5" transform="rotate(90, 378, 67)" opacity="0.79"></rect><rect width="53" height="1" x="-7.5" y="359.5" rx="0.5" transform="rotate(90, 19, 360)" opacity="0.67"></rect><rect width="602" height="1" x="398" y="288.5" rx="0.5" transform="rotate(90, 699, 289)" opacity="0.34"></rect><rect width="869" height="1" x="-106.5" y="480.5" rx="0.5" transform="rotate(90, 328, 481)" opacity="0.87"></rect><rect width="255" height="1" x="139.5" y="782.5" rx="0.5" transform="rotate(90, 267, 783)" opacity="0.86"></rect><rect width="92" height="1" x="722" y="116.5" rx="0.5" transform="rotate(90, 768, 117)" opacity="0.53"></rect><rect width="113" height="1" x="70.5" y="223.5" rx="0.5" transform="rotate(90, 127, 224)" opacity="0.48"></rect><rect width="518" height="1" x="133" y="21.5" rx="0.5" transform="rotate(90, 392, 22)" opacity="0.85"></rect><rect width="793" height="1" x="-243.5" y="403.5" rx="0.5" transform="rotate(90, 153, 404)" opacity="0.92"></rect><rect width="271" height="1" x="626.5" y="375.5" rx="0.5" transform="rotate(90, 762, 376)" opacity="0.74"></rect><rect width="353" height="1" x="234.5" y="92.5" rx="0.5" transform="rotate(90, 411, 93)" opacity="0.42"></rect><rect width="72" height="1" x="305" y="102.5" rx="0.5" transform="rotate(90, 341, 103)" opacity="0.83"></rect><rect width="346" height="1" x="226" y="483.5" rx="0.5" transform="rotate(90, 399, 484)" opacity="0.49"></rect><rect width="861" height="1" x="61.5" y="344.5" rx="0.5" transform="rotate(90, 492, 345)" opacity="0.86"></rect><rect width="157" height="1" x="537.5" y="523.5" rx="0.5" transform="rotate(90, 616, 524)" opacity="0.20"></rect><rect width="559" height="1" x="439.5" y="503.5" rx="0.5" transform="rotate(90, 719, 504)" opacity="0.99"></rect><rect width="88" height="1" x="64" y="379.5" rx="0.5" transform="rotate(90, 108, 380)" opacity="0.60"></rect><rect width="735" height="1" x="121.5" y="661.5" rx="0.5" transform="rotate(90, 489, 662)" opacity="0.76"></rect><rect width="896" height="1" x="-68" y="770.5" rx="0.5" transform="rotate(90, 380, 771)" opacity="0.81"></rect><rect width="580" height="1" x="312" y="638.5" rx="0.5" transform="rotate(90, 602, 639)" opacity="0.56"></rect><rect width="917" height="1" x="-170.5" y="429.5" rx="0.5" transform="rotate(90, 288, 430)" opacity="0.37"></rect><rect width="151" height="1" x="503.5" y="239.5" rx="0.5" transform="rotate(90, 579, 240)" opacity="0.75"></rect><rect width="263" height="1" x="342.5" y="491.5" rx="0.5" transform="rotate(90, 474, 492)" opacity="0.76"></rect><rect width="797" height="1" x="-375.5" y="110.5" rx="0.5" transform="rotate(90, 23, 111)" opacity="0.80"></rect><rect width="456" height="1" x="101" y="347.5" rx="0.5" transform="rotate(90, 329, 348)" opacity="0.52"></rect><rect width="568" height="1" x="-83" y="134.5" rx="0.5" transform="rotate(90, 201, 135)" opacity="0.35"></rect><rect width="757" height="1" x="-170.5" y="44.5" rx="0.5" transform="rotate(90, 208, 45)" opacity="0.53"></rect><rect width="146" height="1" x="594" y="621.5" rx="0.5" transform="rotate(90, 667, 622)" opacity="0.45"></rect><rect width="207" height="1" x="241.5" y="180.5" rx="0.5" transform="rotate(90, 345, 181)" opacity="0.19"></rect><rect width="388" height="1" x="244" y="615.5" rx="0.5" transform="rotate(90, 438, 616)" opacity="0.74"></rect><rect width="1286" height="1" x="116" y="38.5" rx="0.5" transform="rotate(90, 759, 39)" opacity="0.71"></rect><rect width="412" height="1" x="187" y="704.5" rx="0.5" transform="rotate(90, 393, 705)" opacity="0.94"></rect><rect width="146" height="1" x="491" y="180.5" rx="0.5" transform="rotate(90, 564, 181)" opacity="0.29"></rect><rect width="571" height="1" x="118.5" y="143.5" rx="0.5" transform="rotate(90, 404, 144)" opacity="0.61"></rect><rect width="600" height="1" x="139" y="312.5" rx="0.5" transform="rotate(90, 439, 313)" opacity="0.91"></rect><rect width="54" height="1" x="52" y="101.5" rx="0.5" transform="rotate(90, 79, 102)" opacity="0.44"></rect><rect width="466" height="1" x="383" y="579.5" rx="0.5" transform="rotate(90, 616, 580)" opacity="0.68"></rect><rect width="184" height="1" x="663" y="285.5" rx="0.5" transform="rotate(90, 755, 286)" opacity="0.26"></rect><rect width="74" height="1" x="734" y="548.5" rx="0.5" transform="rotate(90, 771, 549)" opacity="0.13"></rect><rect width="481" height="1" x="376.5" y="467.5" rx="0.5" transform="rotate(90, 617, 468)" opacity="0.64"></rect><rect width="1357" height="1" x="-638.5" y="198.5" rx="0.5" transform="rotate(90, 40, 199)" opacity="0.35"></rect><rect width="157" height="1" x="106.5" y="764.5" rx="0.5" transform="rotate(90, 185, 765)" opacity="0.82"></rect><rect width="450" height="1" x="152" y="574.5" rx="0.5" transform="rotate(90, 377, 575)" opacity="0.34"></rect><rect width="449" height="1" x="17.5" y="371.5" rx="0.5" transform="rotate(90, 242, 372)" opacity="0.37"></rect><rect width="472" height="1" x="72" y="642.5" rx="0.5" transform="rotate(90, 308, 643)" opacity="0.95"></rect><rect width="555" height="1" x="-4.5" y="303.5" rx="0.5" transform="rotate(90, 273, 304)" opacity="0.67"></rect><rect width="23" height="1" x="508.5" y="163.5" rx="0.5" transform="rotate(90, 520, 164)" opacity="0.96"></rect><rect width="456" height="1" x="130" y="527.5" rx="0.5" transform="rotate(90, 358, 528)" opacity="0.27"></rect><rect width="841" height="1" x="-378.5" y="581.5" rx="0.5" transform="rotate(90, 42, 582)" opacity="0.78"></rect><rect width="1074" height="1" x="-487" y="659.5" rx="0.5" transform="rotate(90, 50, 660)" opacity="0.50"></rect><rect width="166" height="1" x="441" y="711.5" rx="0.5" transform="rotate(90, 524, 712)" opacity="0.73"></rect><rect width="145" height="1" x="408.5" y="733.5" rx="0.5" transform="rotate(90, 481, 734)" opacity="0.81"></rect><rect width="755" height="1" x="-98.5" y="229.5" rx="0.5" transform="rotate(90, 279, 230)" opacity="0.10"></rect><rect width="778" height="1" x="-106" y="133.5" rx="0.5" transform="rotate(90, 283, 134)" opacity="0.23"></rect><rect width="545" height="1" x="491.5" y="770.5" rx="0.5" transform="rotate(90, 764, 771)" opacity="0.62"></rect><rect width="423" height="1" x="-82.5" y="718.5" rx="0.5" transform="rotate(90, 129, 719)" opacity="0.84"></rect><rect width="331" height="1" x="95.5" y="669.5" rx="0.5" transform="rotate(90, 261, 670)" opacity="0.67"></rect><rect width="309" height="1" x="528.5" y="552.5" rx="0.5" transform="rotate(90, 683, 553)" opacity="0.86"></rect><rect width="127" height="1" x="57.5" y="777.5" rx="0.5" transform="rotate(90, 121, 778)" opacity="0.12"></rect><rect width="519" height="1" x="240.5" y="777.5" rx="0.5" transform="rotate(90, 500, 778)" opacity="0.29"></rect><rect width="723" height="1" x="-326.5" y="276.5" rx="0.5" transform="rotate(90, 35, 277)" opacity="0.78"></rect><rect width="241" height="1" x="157.5" y="529.5" rx="0.5" transform="rotate(90, 278, 530)" opacity="0.73"></rect><rect width="626" height="1" x="463" y="462.5" rx="0.5" transform="rotate(90, 776, 463)" opacity="0.83"></rect><rect width="632" height="1" x="269" y="40.5" rx="0.5" transform="rotate(90, 585, 41)" opacity="0.82"></rect><rect width="688" height="1" x="62" y="240.5" rx="0.5" transform="rotate(90, 406, 241)" opacity="0.98"></rect><rect width="216" height="1" x="428" y="548.5" rx="0.5" transform="rotate(90, 536, 549)" opacity="0.63"></rect><rect width="307" height="1" x="258.5" y="442.5" rx="0.5" transform="rotate(90, 412, 443)" opacity="0.98"></rect><rect width="193" height="1" x="122.5" y="709.5" rx="0.5" transform="rotate(90, 219, 710)" opacity="0.86"></rect><rect width="1061" height="1" x="147.5" y="686.5" rx="0.5" transform="rotate(90, 678, 687)" opacity="0.46"></rect><rect width="229" height="1" x="537.5" y="236.5" rx="0.5" transform="rotate(90, 652, 237)" opacity="0.62"></rect><rect width="415" height="1" x="-48.5" y="464.5" rx="0.5" transform="rotate(90, 159, 465)" opacity="0.36"></rect><rect width="51" height="1" x="404.5" y="661.5" rx="0.5" transform="rotate(90, 430, 662)" opacity="0.59"></rect><rect width="122" height="1" x="374" y="763.5" rx="0.5" transform="rotate(90, 435, 764)" opacity="0.39"></rect><rect width="240" height="1" x="350" y="396.5" rx="0.5" transform="rotate(90, 470, 397)" opacity="0.32"></rect><rect width="292" height="1" x="239" y="301.5" rx="0.5" transform="rotate(90, 385, 302)" opacity="0.98"></rect><rect width="634" height="1" x="307" y="737.5" rx="0.5" transform="rotate(90, 624, 738)" opacity="0.22"></rect><rect width="257" height="1" x="282.5" y="379.5" rx="0.5" transform="rotate(90, 411, 380)" opacity="0.55"></rect><rect width="705" height="1" x="335.5" y="766.5" rx="0.5" transform="rotate(90, 688, 767)" opacity="0.78"></rect><rect width="456" height="1" x="91" y="776.5" rx="0.5" transform="rotate(90, 319, 777)" opacity="0.73"></rect><rect width="598" height="1" x="35" y="285.5" rx="0.5" transform="rotate(90, 334, 286)" opacity="0.92"></rect><rect width="742" height="1" x="-159" y="498.5" rx="0.5" transform="rotate(90, 212, 499)" opacity="0.08"></rect><rect width="318" height="1" x="-119" y="415.5" rx="0.5" transform="rotate(90, 40, 416)" opacity="0.78"></rect><rect width="655" height="1" x="195.5" y="506.5" rx="0.5" transform="rotate(90, 523, 507)" opacity="0.10"></rect><rect width="240" height="1" x="98" y="434.5" rx="0.5" transform="rotate(90, 218, 435)" opacity="0.35"></rect><rect width="729" height="1" x="158.5" y="601.5" rx="0.5" transform="rotate(90, 523, 602)" opacity="0.58"></rect><rect width="859" height="1" x="-222.5" y="261.5" rx="0.5" transform="rotate(90, 207, 262)" opacity="0.95"></rect><rect width="74" height="1" x="548" y="312.5" rx="0.5" transform="rotate(90, 585, 313)" opacity="0.52"></rect><rect width="824" height="1" x="251" y="445.5" rx="0.5" transform="rotate(90, 663, 446)" opacity="0.19"></rect><rect width="845" height="1" x="116.5" y="95.5" rx="0.5" transform="rotate(90, 539, 96)" opacity="0.84"></rect><rect width="150" height="1" x="685" y="219.5" rx="0.5" transform="rotate(90, 760, 220)" opacity="0.68"></rect><rect width="928" height="1" x="-353" y="297.5" rx="0.5" transform="rotate(90, 111, 298)" opacity="0.83"></rect><rect width="490" height="1" x="-82" y="349.5" rx="0.5" transform="rotate(90, 163, 350)" opacity="0.08"></rect><rect width="473" height="1" x="108.5" y="728.5" rx="0.5" transform="rotate(90, 345, 729)" opacity="0.47"></rect><rect width="536" height="1" x="-125" y="48.5" rx="0.5" transform="rotate(90, 143, 49)" opacity="0.87"></rect><rect width="719" height="1" x="124.5" y="233.5" rx="0.5" transform="rotate(90, 484, 234)" opacity="0.88"></rect><rect width="343" height="1" x="368.5" y="381.5" rx="0.5" transform="rotate(90, 540, 382)" opacity="0.57"></rect><rect width="390" height="1" x="462" y="510.5" rx="0.5" transform="rotate(90, 657, 511)" opacity="0.30"></rect><rect width="413" height="1" x="134.5" y="604.5" rx="0.5" transform="rotate(90, 341, 605)" opacity="0.35"></rect><rect width="326" height="1" x="556" y="591.5" rx="0.5" transform="rotate(90, 719, 592)" opacity="0.38"></rect><rect width="608" height="1" x="-280" y="456.5" rx="0.5" transform="rotate(90, 24, 457)" opacity="0.97"></rect><rect width="411" height="1" x="447.5" y="387.5" rx="0.5" transform="rotate(90, 653, 388)" opacity="0.42"></rect><rect width="769" height="1" x="-355.5" y="519.5" rx="0.5" transform="rotate(90, 29, 520)" opacity="0.77"></rect><rect width="439" height="1" x="319.5" y="448.5" rx="0.5" transform="rotate(90, 539, 449)" opacity="0.92"></rect><rect width="424" height="1" x="-21" y="309.5" rx="0.5" transform="rotate(90, 191, 310)" opacity="0.63"></rect><rect width="602" height="1" x="329" y="139.5" rx="0.5" transform="rotate(90, 630, 140)" opacity="0.76"></rect><rect width="565" height="1" x="-177.5" y="455.5" rx="0.5" transform="rotate(90, 105, 456)" opacity="0.81"></rect><rect width="47" height="1" x="291.5" y="36.5" rx="0.5" transform="rotate(90, 315, 37)" opacity="0.93"></rect><rect width="555" height="1" x="434.5" y="158.5" rx="0.5" transform="rotate(90, 712, 159)" opacity="0.54"></rect><rect width="192" height="1" x="630" y="442.5" rx="0.5" transform="rotate(90, 726, 443)" opacity="0.85"></rect><rect width="559" height="1" x="300.5" y="548.5" rx="0.5" transform="rotate(90, 580, 549)" opacity="0.21"></rect><rect width="1014" height="1" x="-44" y="561.5" rx="0.5" transform="rotate(90, 463, 562)" opacity="0.13"></rect><rect width="827" height="1" x="348.5" y="635.5" rx="0.5" transform="rotate(90, 762, 636)" opacity="0.51"></rect><rect width="188" height="1" x="25" y="533.5" rx="0.5" transform="rotate(90, 119, 534)" opacity="0.18"></rect><rect width="223" height="1" x="374.5" y="30.5" rx="0.5" transform="rotate(90, 486, 31)" opacity="0.68"></rect><rect width="163" height="1" x="344.5" y="524.5" rx="0.5" transform="rotate(90, 426, 525)" opacity="0.96"></rect><rect width="128" height="1" x="198" y="740.5" rx="0.5" transform="rotate(90, 262, 741)" opacity="0.22"></rect><rect width="292" height="1" x="559" y="387.5" rx="0.5" transform="rotate(90, 705, 388)" opacity="0.76"></rect><rect width="860" height="1" x="-307" y="146.5" rx="0.5" transform="rotate(90, 123, 147)" opacity="0.98"></rect><rect width="842" height="1" x="-195" y="198.5" rx="0.5" transform="rotate(90, 226, 199)" opacity="0.35"></rect><rect width="1069" height="1" x="-490.5" y="748.5" rx="0.5" transform="rotate(90, 44, 749)" opacity="0.88"></rect><rect width="667" height="1" x="-263.5" y="487.5" rx="0.5" transform="rotate(90, 70, 488)" opacity="0.57"></rect><rect width="422" height="1" x="161" y="651.5" rx="0.5" transform="rotate(90, 372, 652)" opacity="0.32"></rect><rect width="352" height="1" x="383" y="671.5" rx="0.5" transform="rotate(90, 559, 672)" opacity="0.42"></rect><rect width="675" height="1" x="98.5" y="190.5" rx="0.5" transform="rotate(90, 436, 191)" opacity="0.20"></rect><rect width="587" height="1" x="-67.5" y="772.5" rx="0.5" transform="rotate(90, 226, 773)" opacity="0.71"></rect><rect width="308" height="1" x="323" y="136.5" rx="0.5" transform="rotate(90, 477, 137)" opacity="0.75"></rect><rect width="117" height="1" x="294.5" y="407.5" rx="0.5" transform="rotate(90, 353, 408)" opacity="0.32"></rect><rect width="921" height="1" x="57.5" y="286.5" rx="0.5" transform="rotate(90, 518, 287)" opacity="0.97"></rect><rect width="952" height="1" x="-347" y="607.5" rx="0.5" transform="rotate(90, 129, 608)" opacity="0.67"></rect><rect width="191" height="1" x="568.5" y="329.5" rx="0.5" transform="rotate(90, 664, 330)" opacity="0.59"></rect><rect width="568" height="1" x="324" y="361.5" rx="0.5" transform="rotate(90, 608, 362)" opacity="0.73"></rect><rect width="494" height="1" x="17" y="600.5" rx="0.5" transform="rotate(90, 264, 601)" opacity="0.78"></rect><rect width="142" height="1" x="-20" y="31.5" rx="0.5" transform="rotate(90, 51, 32)" opacity="0.87"></rect></g></svg>