<svg xmlns="http://www.w3.org/2000/svg" version="1.1" xmlns:xlink="http://www.w3.org/1999/xlink" xmlns:svgjs="http://svgjs.dev/svgjs" viewBox="0 0 800 800"><defs><linearGradient x1="50%" y1="0%" x2="50%" y2="100%" id="ffflurry-grad" gradientTransform="rotate(270)"><stop stop-color="rgb(12, 12, 12)" stop-opacity="1" offset="0%"></stop><stop stop-color="hsl(0, 0%, 29%)" stop-opacity="1" offset="45%"></stop><stop stop-color="hsl(0, 0%, 79%)" stop-opacity="1" offset="100%"></stop></linearGradient></defs><rect width="100%" height="100%" fill="#0c0c0c"></rect><g fill="url(#ffflurry-grad)"><rect width="42" height="1" x="70" y="312.5" rx="0.5" transform="rotate(120, 91, 313)" opacity="0.82"></rect><rect width="37" height="1" x="497.5" y="756.5" rx="0.5" transform="rotate(120, 516, 757)" opacity="0.19"></rect><rect width="42" height="1" x="485" y="553.5" rx="0.5" transform="rotate(120, 506, 554)" opacity="0.85"></rect><rect width="42" height="1" x="89" y="399.5" rx="0.5" transform="rotate(120, 110, 400)" opacity="0.40"></rect><rect width="29" height="1" x="680.5" y="666.5" rx="0.5" transform="rotate(120, 695, 667)" opacity="0.56"></rect><rect width="29" height="1" x="177.5" y="292.5" rx="0.5" transform="rotate(120, 192, 293)" opacity="0.92"></rect><rect width="33" height="1" x="262.5" y="742.5" rx="0.5" transform="rotate(120, 279, 743)" opacity="0.22"></rect><rect width="29" height="1" x="574.5" y="347.5" rx="0.5" transform="rotate(120, 589, 348)" opacity="0.97"></rect><rect width="32" height="1" x="463" y="288.5" rx="0.5" transform="rotate(120, 479, 289)" opacity="0.59"></rect><rect width="42" height="1" x="611" y="176.5" rx="0.5" transform="rotate(120, 632, 177)" opacity="0.13"></rect><rect width="34" height="1" x="718" y="391.5" rx="0.5" transform="rotate(120, 735, 392)" opacity="0.64"></rect><rect width="37" height="1" x="184.5" y="165.5" rx="0.5" transform="rotate(120, 203, 166)" opacity="0.84"></rect><rect width="24" height="1" x="763" y="697.5" rx="0.5" transform="rotate(120, 775, 698)" opacity="0.43"></rect><rect width="41" height="1" x="105.5" y="563.5" rx="0.5" transform="rotate(120, 126, 564)" opacity="0.31"></rect><rect width="37" height="1" x="97.5" y="187.5" rx="0.5" transform="rotate(120, 116, 188)" opacity="0.45"></rect><rect width="37" height="1" x="743.5" y="462.5" rx="0.5" transform="rotate(120, 762, 463)" opacity="0.48"></rect><rect width="42" height="1" x="584" y="524.5" rx="0.5" transform="rotate(120, 605, 525)" opacity="0.72"></rect><rect width="32" height="1" x="126" y="766.5" rx="0.5" transform="rotate(120, 142, 767)" opacity="0.79"></rect><rect width="31" height="1" x="545.5" y="241.5" rx="0.5" transform="rotate(120, 561, 242)" opacity="0.72"></rect><rect width="48" height="1" x="320" y="541.5" rx="0.5" transform="rotate(120, 344, 542)" opacity="0.47"></rect><rect width="25" height="1" x="478.5" y="428.5" rx="0.5" transform="rotate(120, 491, 429)" opacity="0.49"></rect><rect width="28" height="1" x="438" y="354.5" rx="0.5" transform="rotate(120, 452, 355)" opacity="0.81"></rect><rect width="27" height="1" x="714.5" y="621.5" rx="0.5" transform="rotate(120, 728, 622)" opacity="0.40"></rect><rect width="31" height="1" x="322.5" y="226.5" rx="0.5" transform="rotate(120, 338, 227)" opacity="0.90"></rect><rect width="41" height="1" x="570.5" y="749.5" rx="0.5" transform="rotate(120, 591, 750)" opacity="0.72"></rect><rect width="27" height="1" x="497.5" y="377.5" rx="0.5" transform="rotate(120, 511, 378)" opacity="0.59"></rect><rect width="39" height="1" x="418.5" y="749.5" rx="0.5" transform="rotate(120, 438, 750)" opacity="0.87"></rect><rect width="45" height="1" x="666.5" y="112.5" rx="0.5" transform="rotate(120, 689, 113)" opacity="0.91"></rect><rect width="36" height="1" x="660" y="762.5" rx="0.5" transform="rotate(120, 678, 763)" opacity="0.31"></rect><rect width="41" height="1" x="735.5" y="546.5" rx="0.5" transform="rotate(120, 756, 547)" opacity="0.62"></rect><rect width="21" height="1" x="164.5" y="20.5" rx="0.5" transform="rotate(120, 175, 21)" opacity="0.54"></rect><rect width="38" height="1" x="349" y="421.5" rx="0.5" transform="rotate(120, 368, 422)" opacity="0.64"></rect><rect width="24" height="1" x="555" y="298.5" rx="0.5" transform="rotate(120, 567, 299)" opacity="0.38"></rect><rect width="21" height="1" x="767.5" y="627.5" rx="0.5" transform="rotate(120, 778, 628)" opacity="0.99"></rect><rect width="26" height="1" x="288" y="277.5" rx="0.5" transform="rotate(120, 301, 278)" opacity="0.21"></rect><rect width="32" height="1" x="277" y="336.5" rx="0.5" transform="rotate(120, 293, 337)" opacity="0.25"></rect><rect width="42" height="1" x="109" y="107.5" rx="0.5" transform="rotate(120, 130, 108)" opacity="0.10"></rect><rect width="32" height="1" x="212" y="675.5" rx="0.5" transform="rotate(120, 228, 676)" opacity="0.64"></rect><rect width="40" height="1" x="601" y="409.5" rx="0.5" transform="rotate(120, 621, 410)" opacity="0.30"></rect><rect width="54" height="1" x="24" y="489.5" rx="0.5" transform="rotate(120, 51, 490)" opacity="0.77"></rect><rect width="41" height="1" x="522.5" y="474.5" rx="0.5" transform="rotate(120, 543, 475)" opacity="0.68"></rect><rect width="32" height="1" x="260" y="31.5" rx="0.5" transform="rotate(120, 276, 32)" opacity="0.88"></rect><rect width="34" height="1" x="192" y="355.5" rx="0.5" transform="rotate(120, 209, 356)" opacity="0.62"></rect><rect width="25" height="1" x="183.5" y="63.5" rx="0.5" transform="rotate(120, 196, 64)" opacity="0.61"></rect><rect width="33" height="1" x="330.5" y="147.5" rx="0.5" transform="rotate(120, 347, 148)" opacity="0.71"></rect><rect width="35" height="1" x="184.5" y="430.5" rx="0.5" transform="rotate(120, 202, 431)" opacity="0.23"></rect><rect width="41" height="1" x="737.5" y="53.5" rx="0.5" transform="rotate(120, 758, 54)" opacity="0.24"></rect><rect width="48" height="1" x="268" y="631.5" rx="0.5" transform="rotate(120, 292, 632)" opacity="0.63"></rect><rect width="43" height="1" x="330.5" y="752.5" rx="0.5" transform="rotate(120, 352, 753)" opacity="0.99"></rect><rect width="39" height="1" x="608.5" y="676.5" rx="0.5" transform="rotate(120, 628, 677)" opacity="0.49"></rect><rect width="29" height="1" x="518.5" y="91.5" rx="0.5" transform="rotate(120, 533, 92)" opacity="0.13"></rect><rect width="40" height="1" x="410" y="573.5" rx="0.5" transform="rotate(120, 430, 574)" opacity="0.61"></rect><rect width="48" height="1" x="221" y="540.5" rx="0.5" transform="rotate(120, 245, 541)" opacity="0.40"></rect><rect width="34" height="1" x="645" y="33.5" rx="0.5" transform="rotate(120, 662, 34)" opacity="0.57"></rect><rect width="42" height="1" x="648" y="258.5" rx="0.5" transform="rotate(120, 669, 259)" opacity="0.29"></rect><rect width="32" height="1" x="63" y="672.5" rx="0.5" transform="rotate(120, 79, 673)" opacity="0.49"></rect><rect width="46" height="1" x="15" y="123.5" rx="0.5" transform="rotate(120, 38, 124)" opacity="0.71"></rect><rect width="41" height="1" x="658.5" y="481.5" rx="0.5" transform="rotate(120, 679, 482)" opacity="0.69"></rect><rect width="29" height="1" x="384.5" y="207.5" rx="0.5" transform="rotate(120, 399, 208)" opacity="0.68"></rect><rect width="36" height="1" x="234" y="220.5" rx="0.5" transform="rotate(120, 252, 221)" opacity="0.47"></rect><rect width="29" height="1" x="134.5" y="246.5" rx="0.5" transform="rotate(120, 149, 247)" opacity="0.11"></rect><rect width="37" height="1" x="322.5" y="57.5" rx="0.5" transform="rotate(120, 341, 58)" opacity="0.58"></rect><rect width="37" height="1" x="46.5" y="36.5" rx="0.5" transform="rotate(120, 65, 37)" opacity="0.47"></rect><rect width="42" height="1" x="367" y="312.5" rx="0.5" transform="rotate(120, 388, 313)" opacity="0.86"></rect><rect width="46" height="1" x="15" y="236.5" rx="0.5" transform="rotate(120, 38, 237)" opacity="0.66"></rect><rect width="25" height="1" x="176.5" y="718.5" rx="0.5" transform="rotate(120, 189, 719)" opacity="0.34"></rect><rect width="27" height="1" x="199.5" y="771.5" rx="0.5" transform="rotate(120, 213, 772)" opacity="0.32"></rect><rect width="38" height="1" x="159" y="621.5" rx="0.5" transform="rotate(120, 178, 622)" opacity="0.26"></rect><rect width="34" height="1" x="6" y="720.5" rx="0.5" transform="rotate(120, 23, 721)" opacity="0.32"></rect><rect width="34" height="1" x="500" y="188.5" rx="0.5" transform="rotate(120, 517, 189)" opacity="0.88"></rect><rect width="43" height="1" x="555.5" y="609.5" rx="0.5" transform="rotate(120, 577, 610)" opacity="0.18"></rect><rect width="46" height="1" x="18" y="598.5" rx="0.5" transform="rotate(120, 41, 599)" opacity="0.87"></rect><rect width="41" height="1" x="713.5" y="315.5" rx="0.5" transform="rotate(120, 734, 316)" opacity="0.77"></rect><rect width="39" height="1" x="649.5" y="577.5" rx="0.5" transform="rotate(120, 669, 578)" opacity="0.61"></rect><rect width="33" height="1" x="440.5" y="221.5" rx="0.5" transform="rotate(120, 457, 222)" opacity="0.15"></rect><rect width="33" height="1" x="462.5" y="123.5" rx="0.5" transform="rotate(120, 479, 124)" opacity="0.99"></rect><rect width="39" height="1" x="270.5" y="427.5" rx="0.5" transform="rotate(120, 290, 428)" opacity="0.32"></rect><rect width="30" height="1" x="224" y="101.5" rx="0.5" transform="rotate(120, 239, 102)" opacity="0.55"></rect><rect width="49" height="1" x="363.5" y="663.5" rx="0.5" transform="rotate(120, 388, 664)" opacity="0.19"></rect><rect width="38" height="1" x="11" y="375.5" rx="0.5" transform="rotate(120, 30, 376)" opacity="0.70"></rect><rect width="28" height="1" x="274" y="139.5" rx="0.5" transform="rotate(120, 288, 140)" opacity="0.36"></rect><rect width="35" height="1" x="482.5" y="34.5" rx="0.5" transform="rotate(120, 500, 35)" opacity="0.92"></rect><rect width="30" height="1" x="120" y="689.5" rx="0.5" transform="rotate(120, 135, 690)" opacity="0.75"></rect><rect width="31" height="1" x="53.5" y="767.5" rx="0.5" transform="rotate(120, 69, 768)" opacity="0.91"></rect><rect width="43" height="1" x="734.5" y="190.5" rx="0.5" transform="rotate(120, 756, 191)" opacity="0.58"></rect><rect width="47" height="1" x="477.5" y="662.5" rx="0.5" transform="rotate(120, 501, 663)" opacity="0.42"></rect><rect width="33" height="1" x="572.5" y="51.5" rx="0.5" transform="rotate(120, 589, 52)" opacity="0.19"></rect><rect width="35" height="1" x="396.5" y="124.5" rx="0.5" transform="rotate(120, 414, 125)" opacity="0.41"></rect><rect width="28" height="1" x="717" y="725.5" rx="0.5" transform="rotate(120, 731, 726)" opacity="0.67"></rect><rect width="29" height="1" x="556.5" y="140.5" rx="0.5" transform="rotate(120, 571, 141)" opacity="0.30"></rect><rect width="40" height="1" x="412" y="469.5" rx="0.5" transform="rotate(120, 432, 470)" opacity="0.95"></rect><rect width="36" height="1" x="146" y="491.5" rx="0.5" transform="rotate(120, 164, 492)" opacity="0.30"></rect><rect width="25" height="1" x="753.5" y="772.5" rx="0.5" transform="rotate(120, 766, 773)" opacity="0.56"></rect><rect width="39" height="1" x="396.5" y="38.5" rx="0.5" transform="rotate(120, 416, 39)" opacity="0.46"></rect></g></svg>